<svg xmlns="http://www.w3.org/2000/svg" width="24" height="24" viewBox="0 0 24 24" fill="none" xmlns:v="https://vecta.io/nano"><path d="M2.689 6.705a.75.75 0 1 0-1.379.591l1.379-.591zm12.898 6.624l-.275-.698.275.698zm-6.546.409a.75.75 0 0 0-1.257-.818l1.257.818zm-2.67 1.353a.75.75 0 0 0 1.257.818l-1.257-.818zm16.318-7.796a.75.75 0 1 0-1.379-.591l1.379.591zM19 11.129l-.513-.547h0l.513.547zm.97 2.03a.75.75 0 0 0 1.061-1.061l-1.061 1.061zM11.25 16.5a.75.75 0 1 0 1.5 0h-1.5zm5.121-.591a.75.75 0 0 0 1.257-.818l-1.257.818zM5.53 11.659a.75.75 0 0 0-1.061-1.061l1.061 1.061zm-2.561.439a.75.75 0 0 0 1.061 1.061L2.97 12.099zM12 13.25c-3.224 0-5.539-1.605-7.075-3.26-.768-.827-1.331-1.657-1.702-2.28l-.409-.745-.097-.201-.022-.049C2.689 6.704 2.689 6.705 2 7l-.689.296.013.029.031.068.117.243.462.841c.411.69 1.035 1.61 1.892 2.533 1.713 1.845 4.398 3.74 8.175 3.74v-1.5zm3.313-.619c-.97.382-2.071.619-3.312.619v1.5c1.438 0 2.725-.276 3.862-.723l-.549-1.396zm-7.528.289l-1.413 2.171 1.257.818 1.413-2.171-1.257-.818zM22 7l-.689-.296-.035.077-.123.251-.517.911c-.469.752-1.179 1.729-2.149 2.639l1.027 1.094c1.089-1.022 1.878-2.11 2.395-2.939l.58-1.022.146-.299.038-.084.011-.024c.005-.011.005-.012-.684-.307zm-3.513 3.582c-.859.806-1.913 1.552-3.174 2.049l.549 1.396c1.474-.58 2.685-1.444 3.651-2.351l-1.027-1.094zm-.017 1.077l1.5 1.5 1.061-1.061-1.5-1.5-1.061 1.061zM11.25 14v2.5h1.5V14h-1.5zm3.709-.262l1.413 2.171 1.257-.818-1.413-2.171-1.257.818zM4.47 10.599l-1.5 1.5 1.061 1.061 1.5-1.5-1.061-1.061z" fill="#d48c04"/></svg>