<svg xmlns="http://www.w3.org/2000/svg" width="800" height="800" viewBox="0 0 24 24" fill="none"><path fill="#fff" d="M0 0h24v24H0z"/><path fill-rule="evenodd" d="M9.56 3.7a3 3 0 0 1 4.88 0l.2.26a1 1 0 0 0 .92.42l.84-.1a3 3 0 0 1 3.32 3.32l-.1.85a1 1 0 0 0 .42.92l.26.19a3 3 0 0 1 0 4.88l-.26.2a1 1 0 0 0-.42.92l.1.84a3 3 0 0 1-3.32 3.32l-.84-.1a1 1 0 0 0-.93.42l-.19.26a3 3 0 0 1-4.88 0l-.2-.26a1 1 0 0 0-.92-.42l-.84.1a3 3 0 0 1-3.32-3.32l.1-.84a1 1 0 0 0-.42-.93l-.26-.19a3 3 0 0 1 0-4.88l.26-.2a1 1 0 0 0 .42-.92l-.1-.84A3 3 0 0 1 7.6 4.28l.84.1a1 1 0 0 0 .93-.42l.19-.26zm6.15 5.6a1 1 0 0 1 0 1.4l-3.82 3.83c-.5.49-1.29.49-1.78 0L8.3 12.7a1 1 0 0 1 1.42-1.42L11 12.6l3.3-3.3a1 1 0 0 1 1.4 0z" fill="#06a7e2"/></svg>